#!OML:ASF E:\VariousWalksJay\Project 1\Capture day 1\Session 1\Actor2.ASF
:FULLY-SPECIFIED
:DEGREES
599
root 8.66883 15.8124 -0.942958 7.484 -39.6818 5.46591
lowerback 9.79354 -2.71148 3.52654
upperback 14.4852 -3.6106 -5.36562
thorax 9.56768 -1.26142 -7.76766
lowerneck 8.97127 0.491107 2.15492
upperneck -3.38232 1.0035 1.9821
head -2.63725 0.390284 0.213404
rclavicle 4.6118e-014 -4.29375e-014
rhumerus -29.9583 21.9869 -87.0436
rradius 77.3975
rwrist -0.639668
rhand -23.1573 -13.7745
rfingers 7.12502
rthumb 3.29117 -43.7289
lclavicle 4.6118e-014 -4.29375e-014
lhumerus 30.9084 -20.0808 59.54
lradius 67.6968
lwrist 66.4879
lhand -36.5593 16.0007
lfingers 7.12502
lthumb -9.64949 45.7597
rfemur -59.6509 4.43058 19.4023
rtibia 49.9555
rfoot -2.35286 -7.8499
rtoes 6.41895
lfemur -12.1202 10.1293 -33.3451
ltibia 54.749
lfoot -26.9531 0.432724
ltoes -21.3553
600
root 8.62641 15.7699 -0.891482 7.80217 -39.6773 5.28765
lowerback 10.2998 -2.6886 3.59753
upperback 14.6449 -3.57932 -5.31395
thorax 9.4737 -1.24598 -7.73233
lowerneck 8.98849 0.476046 2.10997
upperneck -3.84586 0.998969 2.09776
head -2.79907 0.377807 0.258769
rclavicle 2.8625e-014 -2.54444e-014
rhumerus -29.6704 21.8135 -86.8425
rradius 77.5065
rwrist -0.58677
rhand -23.2335 -13.7385
rfingers 7.12502
rthumb 3.21757 -43.694
lclavicle 2.8625e-014 -2.54444e-014
lhumerus 31.4444 -19.8964 59.4056
lradius 67.8577
lwrist 66.4434
lhand -36.483 16.1131
lfingers 7.12502
lthumb -9.57588 45.8755
rfemur -60.304 4.49878 19.5467
rtibia 51.0531
rfoot -2.52734 -7.88258
rtoes 7.0801
lfemur -12.4168 10.0993 -33.241
ltibia 55.4495
lfoot -27.0923 0.57926
ltoes -21.7975
601
root 8.58455 15.7275 -0.83981 8.08454 -39.6609 5.17647
lowerback 10.7649 -2.67714 3.62899
upperback 14.79 -3.56334 -5.27764
thorax 9.38538 -1.24088 -7.69286
lowerneck 8.99913 0.469537 2.05625
upperneck -4.29002 1.004 2.20402
head -2.954 0.370597 0.302582
rclavicle 4.13472e-014 -4.92986e-014
rhumerus -29.3731 21.665 -86.6611
rradius 77.5917
rwrist -0.50754
rhand -23.3217 -13.6935
rfingers 7.12502
rthumb 3.13242 -43.6503
lclavicle 4.13472e-014 -4.92986e-014
lhumerus 31.9313 -19.7116 59.2759
lradius 68.0118
lwrist 66.401
lhand -36.4282 16.1788
lfingers 7.12502
lthumb -9.52298 45.9437
rfemur -60.961 4.56341 19.6187
rtibia 52.1479
rfoot -2.76805 -7.92602
rtoes 7.5975
lfemur -12.6618 10.0395 -33.1804
ltibia 56.051
lfoot -27.24 0.672692
ltoes -22.2728
602
root 8.54299 15.6852 -0.788187 8.35574 -39.6256 5.11056
lowerback 11.1747 -2.67907 3.63579
upperback 14.9196 -3.56548 -5.25
thorax 9.30847 -1.24613 -7.65057
lowerneck 9.01001 0.468637 1.99237
upperneck -4.72575 1.0146 2.29617
head -3.10699 0.366805 0.343681
rclavicle 4.53229e-014 -1.98785e-014
rhumerus -29.0663 21.5466 -86.4981
rradius 77.6566
rwrist -0.411613
rhand -23.4312 -13.6016
rfingers 7.12502
rthumb 3.02666 -43.5598
lclavicle 4.53229e-014 -1.98785e-014
lhumerus 32.3652 -19.521 59.1625
lradius 68.1569
lwrist 66.3624
lhand -36.3563 16.2865
lfingers 7.12502
lthumb -9.45364 46.0544
rfemur -61.6285 4.625 19.6358
rtibia 53.2331
rfoot -3.07115 -7.98258
rtoes 7.9595
lfemur -12.8677 9.94571 -33.1411
ltibia 56.5601
lfoot -27.4026 0.696327
ltoes -22.7435
603
root 8.50151 15.6433 -0.736774 8.63166 -39.5643 5.07191
lowerback 11.5257 -2.6949 3.62752
upperback 15.0325 -3.5864 -5.22363
thorax 9.24296 -1.26153 -7.60243
lowerneck 9.02512 0.470694 1.91971
upperneck -5.15568 1.02705 2.36925
head -3.25962 0.364836 0.380331
rclavicle 1.19271e-014 -8.66701e-014
rhumerus -28.7598 21.4618 -86.3476
rradius 77.7154
rwrist -0.316206
rhand -23.5524 -13.4907
rfingers 7.12502
rthumb 2.90965 -43.4506
lclavicle 1.19271e-014 -8.66701e-014
lhumerus 32.7479 -19.3285 59.0616
lradius 68.2985
lwrist 66.3426
lhand -36.3693 16.2671
lfingers 7.12502
lthumb -9.46612 46.0345
rfemur -62.3055 4.68171 19.6138
rtibia 54.2998
rfoot -3.43385 -8.05474
rtoes 8.17132
lfemur -13.0438 9.82205 -33.1034
ltibia 56.9849
lfoot -27.5827 0.646697
ltoes -23.2053
